<svg id="visual" viewBox="0 0 1920 1080" width="1920" height="1080" xmlns="http://www.w3.org/2000/svg" xmlns:xlink="http://www.w3.org/1999/xlink" version="1.1"><rect x="0" y="0" width="1920" height="1080" fill="#99d9ea"></rect><path d="M0 719L22.8 743.5C45.7 768 91.3 817 137 829C182.7 841 228.3 816 274 796.7C319.7 777.3 365.3 763.7 411.2 766.2C457 768.7 503 787.3 548.8 802.5C594.7 817.7 640.3 829.3 686 830.2C731.7 831 777.3 821 823 824.5C868.7 828 914.3 845 960 832.8C1005.7 820.7 1051.3 779.3 1097 780.5C1142.7 781.7 1188.3 825.3 1234 851.7C1279.7 878 1325.3 887 1371.2 888.8C1417 890.7 1463 885.3 1508.8 880.5C1554.7 875.7 1600.3 871.3 1646 846.7C1691.7 822 1737.3 777 1783 762.7C1828.7 748.3 1874.3 764.7 1897.2 772.8L1920 781L1920 1081L1897.2 1081C1874.3 1081 1828.7 1081 1783 1081C1737.3 1081 1691.7 1081 1646 1081C1600.3 1081 1554.7 1081 1508.8 1081C1463 1081 1417 1081 1371.2 1081C1325.3 1081 1279.7 1081 1234 1081C1188.3 1081 1142.7 1081 1097 1081C1051.3 1081 1005.7 1081 960 1081C914.3 1081 868.7 1081 823 1081C777.3 1081 731.7 1081 686 1081C640.3 1081 594.7 1081 548.8 1081C503 1081 457 1081 411.2 1081C365.3 1081 319.7 1081 274 1081C228.3 1081 182.7 1081 137 1081C91.3 1081 45.7 1081 22.8 1081L0 1081Z" fill="#c8bfe7" stroke-linecap="round" stroke-linejoin="miter"></path></svg>